<mxfile host="www.draw.io" modified="2020-01-09T19:49:55.896Z" agent="Mozilla/5.0 (Windows NT 10.0; Win64; x64) AppleWebKit/537.36 (KHTML, like Gecko) Chrome/79.0.3945.88 Safari/537.36" etag="OtPSk7p3aZl2Qox-_e6Y" version="12.5.1" type="github">
  <diagram id="C5RBs43oDa-KdzZeNtuy" name="Page-1">
    <mxGraphModel dx="2062" dy="1123" grid="1" gridSize="10" guides="1" tooltips="1" connect="1" arrows="1" fold="1" page="1" pageScale="1" pageWidth="827" pageHeight="1169" math="0" shadow="0">
      <root>
        <mxCell id="WIyWlLk6GJQsqaUBKTNV-0"/>
        <mxCell id="WIyWlLk6GJQsqaUBKTNV-1" parent="WIyWlLk6GJQsqaUBKTNV-0"/>
        <mxCell id="WIyWlLk6GJQsqaUBKTNV-2" value="" style="rounded=0;html=1;jettySize=auto;orthogonalLoop=1;fontSize=11;endArrow=block;endFill=0;endSize=8;strokeWidth=1;shadow=0;labelBackgroundColor=none;edgeStyle=orthogonalEdgeStyle;" parent="WIyWlLk6GJQsqaUBKTNV-1" source="WIyWlLk6GJQsqaUBKTNV-3" target="WIyWlLk6GJQsqaUBKTNV-6" edge="1">
          <mxGeometry relative="1" as="geometry"/>
        </mxCell>
        <mxCell id="WIyWlLk6GJQsqaUBKTNV-3" value="Choose new behavior" style="rounded=1;whiteSpace=wrap;html=1;fontSize=12;glass=0;strokeWidth=1;shadow=0;" parent="WIyWlLk6GJQsqaUBKTNV-1" vertex="1">
          <mxGeometry x="175" y="70" width="120" height="40" as="geometry"/>
        </mxCell>
        <mxCell id="WIyWlLk6GJQsqaUBKTNV-5" value="No" style="edgeStyle=orthogonalEdgeStyle;rounded=0;html=1;jettySize=auto;orthogonalLoop=1;fontSize=11;endArrow=block;endFill=0;endSize=8;strokeWidth=1;shadow=0;labelBackgroundColor=none;" parent="WIyWlLk6GJQsqaUBKTNV-1" source="WIyWlLk6GJQsqaUBKTNV-6" target="eaCt40kiBauempKZoXGX-5" edge="1">
          <mxGeometry y="10" relative="1" as="geometry">
            <mxPoint as="offset"/>
            <mxPoint x="390" y="225" as="targetPoint"/>
          </mxGeometry>
        </mxCell>
        <mxCell id="WIyWlLk6GJQsqaUBKTNV-6" value="Is the same&lt;br&gt;&amp;nbsp;behavior as current?" style="rhombus;whiteSpace=wrap;html=1;shadow=0;fontFamily=Helvetica;fontSize=12;align=center;strokeWidth=1;spacing=6;spacingTop=-4;" parent="WIyWlLk6GJQsqaUBKTNV-1" vertex="1">
          <mxGeometry x="160" y="160" width="150" height="120" as="geometry"/>
        </mxCell>
        <mxCell id="eaCt40kiBauempKZoXGX-14" value="No" style="edgeStyle=orthogonalEdgeStyle;rounded=0;orthogonalLoop=1;jettySize=auto;html=1;entryX=0.5;entryY=0;entryDx=0;entryDy=0;endArrow=block;endFill=0;" edge="1" parent="WIyWlLk6GJQsqaUBKTNV-1" source="eaCt40kiBauempKZoXGX-2" target="eaCt40kiBauempKZoXGX-10">
          <mxGeometry x="-0.6" y="25" relative="1" as="geometry">
            <mxPoint as="offset"/>
          </mxGeometry>
        </mxCell>
        <mxCell id="eaCt40kiBauempKZoXGX-16" style="edgeStyle=orthogonalEdgeStyle;rounded=0;comic=0;orthogonalLoop=1;jettySize=auto;html=1;exitX=1;exitY=0.5;exitDx=0;exitDy=0;entryX=0.5;entryY=0;entryDx=0;entryDy=0;endArrow=block;endFill=0;" edge="1" parent="WIyWlLk6GJQsqaUBKTNV-1" source="eaCt40kiBauempKZoXGX-2" target="WIyWlLk6GJQsqaUBKTNV-3">
          <mxGeometry relative="1" as="geometry">
            <Array as="points">
              <mxPoint x="540" y="655"/>
              <mxPoint x="540" y="50"/>
              <mxPoint x="235" y="50"/>
            </Array>
          </mxGeometry>
        </mxCell>
        <mxCell id="eaCt40kiBauempKZoXGX-2" value="Duration expired?" style="rhombus;whiteSpace=wrap;html=1;" vertex="1" parent="WIyWlLk6GJQsqaUBKTNV-1">
          <mxGeometry x="172.5" y="600" width="125" height="110" as="geometry"/>
        </mxCell>
        <mxCell id="eaCt40kiBauempKZoXGX-8" style="edgeStyle=orthogonalEdgeStyle;rounded=0;orthogonalLoop=1;jettySize=auto;html=1;entryX=0.5;entryY=0;entryDx=0;entryDy=0;endArrow=block;endFill=0;" edge="1" parent="WIyWlLk6GJQsqaUBKTNV-1" source="eaCt40kiBauempKZoXGX-3" target="eaCt40kiBauempKZoXGX-6">
          <mxGeometry relative="1" as="geometry"/>
        </mxCell>
        <mxCell id="eaCt40kiBauempKZoXGX-3" value="Poke current behavior" style="rounded=0;whiteSpace=wrap;html=1;" vertex="1" parent="WIyWlLk6GJQsqaUBKTNV-1">
          <mxGeometry x="175" y="340" width="120" height="60" as="geometry"/>
        </mxCell>
        <mxCell id="eaCt40kiBauempKZoXGX-4" value="Yes" style="rounded=0;html=1;jettySize=auto;orthogonalLoop=1;fontSize=11;endArrow=block;endFill=0;endSize=8;strokeWidth=1;shadow=0;labelBackgroundColor=none;edgeStyle=orthogonalEdgeStyle;noJump=0;comic=0;" edge="1" parent="WIyWlLk6GJQsqaUBKTNV-1" source="WIyWlLk6GJQsqaUBKTNV-6" target="eaCt40kiBauempKZoXGX-3">
          <mxGeometry y="20" relative="1" as="geometry">
            <mxPoint as="offset"/>
            <mxPoint x="235" y="280" as="sourcePoint"/>
            <mxPoint x="230" y="330" as="targetPoint"/>
          </mxGeometry>
        </mxCell>
        <mxCell id="eaCt40kiBauempKZoXGX-17" style="edgeStyle=orthogonalEdgeStyle;rounded=0;comic=0;orthogonalLoop=1;jettySize=auto;html=1;entryX=0.5;entryY=0;entryDx=0;entryDy=0;endArrow=block;endFill=0;" edge="1" parent="WIyWlLk6GJQsqaUBKTNV-1" source="eaCt40kiBauempKZoXGX-5" target="eaCt40kiBauempKZoXGX-6">
          <mxGeometry relative="1" as="geometry">
            <Array as="points">
              <mxPoint x="440" y="440"/>
              <mxPoint x="235" y="440"/>
            </Array>
          </mxGeometry>
        </mxCell>
        <mxCell id="eaCt40kiBauempKZoXGX-5" value="Change current behavior" style="rounded=0;whiteSpace=wrap;html=1;" vertex="1" parent="WIyWlLk6GJQsqaUBKTNV-1">
          <mxGeometry x="380" y="190" width="120" height="60" as="geometry"/>
        </mxCell>
        <mxCell id="eaCt40kiBauempKZoXGX-9" style="edgeStyle=orthogonalEdgeStyle;rounded=0;orthogonalLoop=1;jettySize=auto;html=1;entryX=0.5;entryY=0;entryDx=0;entryDy=0;endArrow=block;endFill=0;" edge="1" parent="WIyWlLk6GJQsqaUBKTNV-1" source="eaCt40kiBauempKZoXGX-6" target="eaCt40kiBauempKZoXGX-2">
          <mxGeometry relative="1" as="geometry"/>
        </mxCell>
        <mxCell id="eaCt40kiBauempKZoXGX-6" value="Generate duration" style="rounded=0;whiteSpace=wrap;html=1;" vertex="1" parent="WIyWlLk6GJQsqaUBKTNV-1">
          <mxGeometry x="175" y="480" width="120" height="60" as="geometry"/>
        </mxCell>
        <mxCell id="eaCt40kiBauempKZoXGX-15" style="edgeStyle=orthogonalEdgeStyle;rounded=0;orthogonalLoop=1;jettySize=auto;html=1;entryX=0;entryY=0.5;entryDx=0;entryDy=0;endArrow=block;endFill=0;" edge="1" parent="WIyWlLk6GJQsqaUBKTNV-1" source="eaCt40kiBauempKZoXGX-10" target="eaCt40kiBauempKZoXGX-2">
          <mxGeometry relative="1" as="geometry">
            <Array as="points">
              <mxPoint x="235" y="840"/>
              <mxPoint x="120" y="840"/>
              <mxPoint x="120" y="655"/>
            </Array>
          </mxGeometry>
        </mxCell>
        <mxCell id="eaCt40kiBauempKZoXGX-10" value="Decrease timer" style="rounded=0;whiteSpace=wrap;html=1;" vertex="1" parent="WIyWlLk6GJQsqaUBKTNV-1">
          <mxGeometry x="175" y="750" width="120" height="60" as="geometry"/>
        </mxCell>
      </root>
    </mxGraphModel>
  </diagram>
</mxfile>
